<svg width="128" height="121" viewBox="0 0 128 121" fill="none" xmlns="http://www.w3.org/2000/svg">
<path d="M98.7812 55.125C98.7812 66.8691 94.1159 78.1322 85.8116 86.4366C77.5072 94.7409 66.2441 99.4062 54.5 99.4062C42.7559 99.4062 31.4928 94.7409 23.1884 86.4366C14.8841 78.1322 10.2188 66.8691 10.2188 55.125C10.2188 43.3809 14.8841 32.1178 23.1884 23.8134C31.4928 15.5091 42.7559 10.8438 54.5 10.8438C66.2441 10.8438 77.5072 15.5091 85.8116 23.8134C94.1159 32.1178 98.7812 43.3809 98.7812 55.125ZM0 55.125C0 69.5793 5.74195 83.4416 15.9627 93.6623C26.1834 103.883 40.0457 109.625 54.5 109.625C68.9543 109.625 82.8166 103.883 93.0373 93.6623C103.258 83.4416 109 69.5793 109 55.125C109 40.6707 103.258 26.8084 93.0373 16.5877C82.8166 6.36695 68.9543 0.625 54.5 0.625C40.0457 0.625 26.1834 6.36695 15.9627 16.5877C5.74195 26.8084 0 40.6707 0 55.125ZM49.3906 26.1719V55.125C49.3906 56.8281 50.2422 58.4248 51.6686 59.3828L72.1061 73.0078C74.4479 74.5832 77.6199 73.9445 79.1953 71.5814C80.7707 69.2184 80.132 66.0676 77.7689 64.4922L59.6094 52.4V26.1719C59.6094 23.3404 57.3314 21.0625 54.5 21.0625C51.6686 21.0625 49.3906 23.3404 49.3906 26.1719Z" fill="#2DCFDC"/>
<path d="M100 121C107.426 121 114.548 118.05 119.799 112.799C125.05 107.548 128 100.426 128 93C128 85.5739 125.05 78.452 119.799 73.201C114.548 67.95 107.426 65 100 65C92.5739 65 85.452 67.95 80.201 73.201C74.95 78.452 72 85.5739 72 93C72 100.426 74.95 107.548 80.201 112.799C85.452 118.05 92.5739 121 100 121ZM100 79C101.455 79 102.625 80.1703 102.625 81.625V93.875C102.625 95.3297 101.455 96.5 100 96.5C98.5453 96.5 97.375 95.3297 97.375 93.875V81.625C97.375 80.1703 98.5453 79 100 79ZM96.5 103.5C96.5 102.572 96.8687 101.682 97.5251 101.025C98.1815 100.369 99.0717 100 100 100C100.928 100 101.818 100.369 102.475 101.025C103.131 101.682 103.5 102.572 103.5 103.5C103.5 104.428 103.131 105.318 102.475 105.975C101.818 106.631 100.928 107 100 107C99.0717 107 98.1815 106.631 97.5251 105.975C96.8687 105.318 96.5 104.428 96.5 103.5Z" fill="#F26674"/>
<path d="M100 79C101.455 79 102.625 80.1703 102.625 81.625V93.875C102.625 95.3297 101.455 96.5 100 96.5C98.5453 96.5 97.375 95.3297 97.375 93.875V81.625C97.375 80.1703 98.5453 79 100 79Z" fill="white"/>
<path d="M96.5 103.5C96.5 102.572 96.8687 101.682 97.5251 101.025C98.1815 100.369 99.0717 100 100 100C100.928 100 101.818 100.369 102.475 101.025C103.131 101.682 103.5 102.572 103.5 103.5C103.5 104.428 103.131 105.318 102.475 105.975C101.818 106.631 100.928 107 100 107C99.0717 107 98.1815 106.631 97.5251 105.975C96.8687 105.318 96.5 104.428 96.5 103.5Z" fill="white"/>
</svg>
