<svg width="55" height="55" viewBox="0 0 55 55" fill="none" xmlns="http://www.w3.org/2000/svg">
<path d="M54.6839 0.314638C54.4823 0.113222 54.2091 0 53.9241 0L27.499 0.00139648C26.9058 0.00139648 26.4249 0.482431 26.4249 1.07561V4.14755L16.2425 6.87595C15.6694 7.02957 15.3293 7.61856 15.4829 8.19155L20.7602 27.8865L16.1949 32.4518C15.6138 31.6033 14.6382 31.0454 13.5347 31.0454H3.22254C1.44557 31.0454 0 32.4911 0 34.2679V51.7772C0 53.5542 1.44557 54.9999 3.22254 54.9999H13.5348C15.0444 54.9999 16.3143 53.9562 16.6624 52.5528L17.9396 53.6667C18.9257 54.5265 20.1889 55 21.4972 55H53.9243C54.5175 55 54.9985 54.519 54.9985 53.9258V1.07422C54.9983 0.789334 54.8853 0.516054 54.6839 0.314638ZM14.6088 51.7774C14.6088 52.3696 14.1269 52.8516 13.5346 52.8516H3.22243C2.63011 52.8516 2.14822 52.3697 2.14822 51.7774V34.2681C2.14822 33.6757 2.63011 33.1938 3.22243 33.1938H7.30435V45.5683C7.30435 46.1615 7.78538 46.6425 8.37857 46.6425C8.97175 46.6425 9.45278 46.1615 9.45278 45.5683V33.1938H13.5347C14.127 33.1938 14.6089 33.6757 14.6089 34.2681V51.7774H14.6088ZM17.8361 8.67312L26.4249 6.37172V10.3522L25.7049 10.5452C25.4296 10.619 25.1951 10.7989 25.0527 11.0456C24.9102 11.2924 24.8716 11.5855 24.9454 11.8607C25.3582 13.4013 24.4407 14.9904 22.9002 15.4032C22.6246 15.4771 22.3897 15.6574 22.2473 15.9046C22.105 16.1518 22.0667 16.4455 22.1411 16.7209L26.3283 32.226H24.1723L23.0613 27.8793C23.0259 27.7409 22.9641 27.6134 22.8812 27.5025L17.8361 8.67312ZM26.4249 15.2785V24.3428L24.4656 17.0881C25.2841 16.6655 25.9538 16.0332 26.4249 15.2785ZM41.8575 52.8515H21.497C20.708 52.8515 19.9461 52.5659 19.3514 52.0474L16.7572 49.785V34.9278L21.4471 30.238L22.2976 33.5659C22.4192 34.0415 22.8475 34.3741 23.3383 34.3741L44.4579 34.3754C45.2871 34.3754 45.9618 35.05 45.9618 35.8793C45.9618 36.7086 45.2871 37.3832 44.4579 37.3832H33.6362C33.043 37.3832 32.562 37.8642 32.562 38.4574C32.562 39.0506 33.043 39.5316 33.6362 39.5316H47.8202C48.6494 39.5316 49.3241 40.2062 49.3241 41.0355C49.3241 41.8648 48.6494 42.5394 47.8202 42.5394H33.6362C33.043 42.5394 32.562 43.0204 32.562 43.6136C32.562 44.2068 33.043 44.6878 33.6362 44.6878H45.5217C46.3509 44.6878 47.0256 45.3625 47.0256 46.1917C47.0256 47.021 46.3509 47.6957 45.5217 47.6957H33.6362C33.043 47.6957 32.562 48.1767 32.562 48.7699C32.562 49.3631 33.043 49.8441 33.6362 49.8441H41.8575C42.6868 49.8441 43.3614 50.5187 43.3614 51.348C43.3613 52.1769 42.6867 52.8515 41.8575 52.8515ZM52.8501 52.8515H45.1845C45.3927 52.3925 45.5097 51.8836 45.5097 51.3476C45.5097 50.8115 45.3927 50.3027 45.1845 49.8437H45.5217C47.5355 49.8437 49.1739 48.2053 49.1739 46.1914C49.1739 45.604 49.0337 45.049 48.7862 44.5568C50.3326 44.132 51.4723 42.7146 51.4723 41.0353C51.4723 40.2206 51.2039 39.4675 50.7514 38.8595V25.2448C50.7514 24.6517 50.2703 24.1706 49.6772 24.1706C49.084 24.1706 48.6029 24.6517 48.6029 25.2448V37.4686C48.3505 37.4132 48.0887 37.3832 47.8199 37.3832H47.7847C47.993 36.9242 48.11 36.4153 48.11 35.8793C48.11 33.8653 46.4716 32.227 44.4577 32.227H42.7309C44.5645 31.4407 45.8523 29.6182 45.8523 27.4999C45.8523 24.6652 43.5462 22.359 40.7114 22.359C37.8768 22.359 35.5705 24.6652 35.5705 27.4999C35.5705 29.6182 36.8584 31.4407 38.6919 32.227H32.8199V11.8017C34.7389 11.3835 36.2531 9.86937 36.6712 7.95028H44.7515C45.1696 9.86937 46.6838 11.3835 48.6028 11.8017V15.1414C48.6028 15.7346 49.0839 16.2156 49.677 16.2156C50.2702 16.2156 50.7513 15.7346 50.7513 15.1414V10.8426C50.7513 10.2494 50.2702 9.76839 49.677 9.76839C48.0822 9.76839 46.7848 8.47084 46.7848 6.87606C46.7848 6.28288 46.3038 5.80184 45.7106 5.80184H35.7122C35.119 5.80184 34.638 6.28288 34.638 6.87606C34.638 8.47095 33.3406 9.76839 31.7458 9.76839C31.1526 9.76839 30.6716 10.2494 30.6716 10.8426V32.2269H28.5734V2.14962L52.8501 2.14843V52.8515ZM40.7116 30.4925C39.0615 30.4925 37.7192 29.1501 37.7192 27.5001C37.7192 25.8501 39.0616 24.5075 40.7116 24.5075C42.3616 24.5075 43.7041 25.85 43.7041 27.4999C43.7041 29.1499 42.3617 30.4925 40.7116 30.4925Z" fill="#3CC2BA"/>
</svg>
