<svg width="39" height="30" viewBox="0 0 39 30" fill="none" xmlns="http://www.w3.org/2000/svg">
<path d="M0.152283 28.4255C0.143805 28.8071 0.2847 29.1767 0.544284 29.4537C0.803868 29.7306 1.16111 29.8926 1.53821 29.9044H10.9336C10.9902 29.9286 11.051 29.9411 11.1124 29.9411C11.1739 29.9411 11.2347 29.9286 11.2912 29.9044H38.3562C38.4984 29.9044 38.6349 29.8472 38.7354 29.7455C38.836 29.6437 38.8925 29.5057 38.8925 29.3618V1.53863C38.9016 1.15666 38.7609 0.786571 38.5013 0.509113C38.2417 0.231655 37.8841 0.0693519 37.5066 0.0576172H0.645726C0.503477 0.0576172 0.367054 0.114786 0.266469 0.216549C0.165884 0.318312 0.109375 0.456332 0.109375 0.600246V20.2094C0.10929 20.2825 0.123888 20.3549 0.152283 20.4221V28.4255ZM10.5754 19.6661H1.22498V10.9485H10.5754V19.6661ZM1.22498 28.4255V20.7513H10.5754V28.8191H1.53821C1.44616 28.8065 1.3624 28.7586 1.30414 28.6854C1.24588 28.6122 1.21756 28.5192 1.22498 28.4255ZM37.8198 19.02H28.4265V10.2974H37.8198V19.02ZM28.4265 28.8191V20.1023H37.8198V28.4226C37.8277 28.5166 37.7995 28.6101 37.7413 28.6837C37.683 28.7574 37.599 28.8056 37.5066 28.8184L28.4265 28.8191ZM37.8198 1.53863V9.21213H27.8902C27.7479 9.21213 27.6115 9.2693 27.5109 9.37106C27.4104 9.47283 27.3538 9.61085 27.3538 9.75476V28.8191H11.6481V1.14288H37.5066C37.599 1.1557 37.683 1.2039 37.7413 1.27754C37.7995 1.35118 37.8277 1.44463 37.8198 1.53863ZM10.5732 1.14288V9.86329H1.22498V1.54297C1.21698 1.44893 1.24504 1.35539 1.30335 1.28171C1.36167 1.20803 1.44576 1.15987 1.53821 1.14722L10.5732 1.14288Z" fill="black"/>
</svg>
