<svg width="116" height="116" viewBox="0 0 116 116" fill="none" xmlns="http://www.w3.org/2000/svg">
<g clip-path="url(#clip0_477_2487)">
<path d="M26.1951 37.1102V36.4834H22.4531V37.1102C22.4531 38.1822 22.4812 39.2543 22.5354 40.3208L26.2736 40.1299C26.2231 39.1252 26.1951 38.1205 26.1951 37.1102Z" fill="#2CCFDB"/>
<path d="M26.5692 43.7549L22.8516 44.1796C23.9218 53.6037 27.2072 62.8144 32.3505 70.8128L35.4974 68.7884C30.6629 61.269 27.5776 52.612 26.5692 43.7549Z" fill="#2CCFDB"/>
<path d="M68.9646 18.1709C65.7241 20.3599 61.9317 21.5162 57.9989 21.5162C54.0661 21.5162 50.2755 20.3599 47.035 18.1728L44.9414 21.2748C48.8031 23.8811 53.3177 25.2581 57.9989 25.2581C62.6801 25.2581 67.1947 23.8811 71.0583 21.273L68.9646 18.1709Z" fill="#2CCFDB"/>
<path d="M16.8387 72.0322H13.0968C13.0968 79.2523 7.22007 85.129 0 85.129V88.8709C7.22007 88.8709 13.0968 94.7477 13.0968 101.968H16.8387C16.8387 94.7477 22.7154 88.8709 29.9355 88.8709V85.129C22.7154 85.129 16.8387 79.2523 16.8387 72.0322ZM14.9678 94.2874C13.3587 91.1629 10.8048 88.609 7.68033 87C10.8048 85.3909 13.3587 82.8371 14.9678 79.7126C16.5768 82.8371 19.1307 85.3909 22.2552 87C19.1307 88.609 16.5768 91.1629 14.9678 94.2874Z" fill="#2CCFDB"/>
<path d="M102.904 23.3867H99.3213C95.7777 14.5726 87.1039 8.41895 77.2757 8.41895C72.6357 8.41895 68.2726 9.67436 64.6579 12.0468C60.6559 14.6811 55.3479 14.6811 51.3441 12.0468C47.7312 9.67436 43.3682 8.41895 38.7263 8.41895C25.6258 8.41895 14.9688 19.076 14.9688 32.1765V37.1102C14.9688 50.5251 18.8042 63.5769 26.058 74.8607C29.9608 80.932 32.8271 87.5609 34.5784 94.562L36.614 102.708C37.3287 105.578 39.8938 107.58 42.8499 107.58C46.0586 107.58 48.7341 105.277 49.2074 102.104L53.404 74.118C53.7501 71.826 55.6829 70.1609 58.001 70.1609C60.3191 70.1609 62.2518 71.826 62.5961 74.118L66.7927 102.104C67.2679 105.277 69.9434 107.58 73.1521 107.58C76.1082 107.58 78.6733 105.578 79.388 102.708L81.4255 94.562C83.1767 87.559 86.0449 80.9302 89.9477 74.8607C94.2117 68.2263 97.3306 60.8173 99.1548 53.1276C99.1529 53.1931 99.1622 53.2567 99.1622 53.3222H102.904C102.904 46.1021 108.781 40.2254 116.001 40.2254V36.4835C108.781 36.4835 102.904 30.6067 102.904 23.3867ZM86.7989 72.8363C82.6734 79.2538 79.6462 86.2587 77.7958 93.6565L75.7565 101.803C75.459 103.002 74.3869 103.838 73.1521 103.838C71.8106 103.838 70.6936 102.875 70.4953 101.548L66.2987 73.5623C65.6776 69.4218 62.1863 66.4189 58.001 66.4189C53.8156 66.4189 50.3244 69.4218 49.7032 73.5623L45.5067 101.548C45.3102 102.875 44.1914 103.838 42.8499 103.838C41.6151 103.838 40.543 103.002 40.2418 101.803L38.2043 93.6565C36.3558 86.2568 33.3267 79.2519 29.2012 72.8363C22.3385 62.1587 18.7107 49.8047 18.7107 37.1102V32.1765C18.7107 21.1397 27.6895 12.1609 38.7263 12.1609C42.6347 12.1609 46.2869 13.203 49.2879 15.175C51.9091 16.8982 54.8428 17.7738 58.001 17.7738C61.1592 17.7738 64.0928 16.8982 66.7122 15.175C69.7151 13.203 73.3672 12.1609 77.2757 12.1609C87.1469 12.1609 95.6635 19.5157 97.0668 29.1193L97.1453 30.3373C94.8253 34.0213 90.7317 36.4835 86.0655 36.4835V40.2254C90.4585 40.2254 94.3445 42.4069 96.7206 45.7354C95.4577 55.3297 92.0301 64.6976 86.7989 72.8363ZM101.033 45.6418C99.4242 42.5173 96.8703 39.9635 93.7458 38.3544C96.8703 36.7454 99.4242 34.1915 101.033 31.067C102.642 34.1915 105.196 36.7454 108.321 38.3544C105.196 39.9635 102.642 42.5173 101.033 45.6418Z" fill="#2CCFDB"/>
</g>
<defs>
<clipPath id="clip0_477_2487">
<rect width="116" height="116" fill="white"/>
</clipPath>
</defs>
</svg>
